# xmcd CD database file
#
# Track frame offsets:
#	183
#	14108
#	26858
#	36798
#	46690
#	57185
#	68240
#	77238
#	87608
#	99655
#	109333
#	119523
#	133688
#	147158
#	160610
#	170988
#	182703
#	193243
#	202928
#	214353
#	226300
#	237125
#	250860
#	263743
#
# Disc length: 3684 seconds
#
# Revision: 5
# Processed by: cddbd v1.4PL0 Copyright (c) Steve Scherf et al.
# Submitted via: CDex 1.50Beta7
#
DISCID=640e6218
DTITLE=Slim Harpo - Hip Shakin' ~ The Excello Collection [CD1]
DYEAR=1994
DGENRE=Blues
TTITLE0=I'm a King Bee
TTITLE1=I Got Love If You Want It
TTITLE2=Wonderin' and Worryin'
TTITLE3=Strange Love
TTITLE4=You'll be Sorry One Day
TTITLE5=One More Day
TTITLE6=Bobby Sox Baby
TTITLE7=Buzz Me, Babe
TTITLE8=Late Last Night
TTITLE9=Yeah, Yeah, Baby
TTITLE10=Don't Start Crying Now
TTITLE11=Blues Hangover
TTITLE12=Please Don't Turn Me Down
TTITLE13=Moody Blues
TTITLE14=Snoopin' Around
TTITLE15=Rainin' in My Heart
TTITLE16=Lovers Confession
TTITLE17=Buzzin'
TTITLE18=I Love the Life I'm Living
TTITLE19=Little Queen Bee (Got a Brand New King)
TTITLE20=I Need Money
TTITLE21=Still Rainin' in My Heart
TTITLE22=We're Two of a Kind
TTITLE23=What's Goin' on, Baby¿
EXTD=Submitted 3/2/98\nJimster YEAR: 1994
EXTT0=
EXTT1=
EXTT2=
EXTT3=
EXTT4=
EXTT5=
EXTT6=
EXTT7=
EXTT8=
EXTT9=
EXTT10=
EXTT11=
EXTT12=
EXTT13=
EXTT14=
EXTT15=
EXTT16=
EXTT17=
EXTT18=
EXTT19=
EXTT20=
EXTT21=
EXTT22=
EXTT23=
PLAYORDER=
